<svg width="512" height="512" viewBox="0 0 512 512" fill="none" xmlns="http://www.w3.org/2000/svg">
<path fill-rule="evenodd" clip-rule="evenodd" d="M255.505 68H68V255.505H255.505V68ZM140.118 133.194H183.388V118.77H197.812V133.194H212.235V147.617H226.659V162.041H241.082V205.311H226.659V176.464H212.235V205.311H197.812V190.888H125.694V205.311H111.271V176.464H96.8474V205.311H82.4239V162.041H96.8474V147.617H111.271V133.194H125.694V118.77H140.118V133.194ZM125.694 118.77H111.271V104.347H125.694V118.77ZM125.694 205.311H154.541V219.735H125.694V205.311ZM197.812 205.311V219.735H168.965V205.311H197.812ZM197.812 118.77V104.347H212.235V118.77H197.812ZM140.118 147.617H125.694V162.04H140.118V147.617ZM197.811 162.04V147.617H183.388V162.04H197.811Z" />
<path fill-rule="evenodd" clip-rule="evenodd" d="M370.894 133.195H327.624V118.771H313.2V104.348H298.777V118.771H313.2V133.195H298.777V147.618H284.353V162.042H269.93V205.312H284.353V176.465H298.777V205.312H313.2V219.736H342.047V205.312H313.2V190.889H385.318V205.312H356.471V219.736H385.318V205.312H399.741V176.465H414.165V205.312H428.588V162.042H414.165V147.618H399.741V133.195H385.318V118.771H399.741V104.348H385.318V118.771H370.894V133.195ZM313.201 147.618H327.624V162.041H313.201V147.618ZM385.318 147.618V162.041H370.895V147.618H385.318Z" />
<path fill-rule="evenodd" clip-rule="evenodd" d="M183.388 320.831H140.118V306.408H125.694V291.984H111.271V306.408H125.694V320.831H111.271V335.255H96.8473V349.678H82.4238V392.949H96.8473V364.102H111.271V392.949H125.694V407.372H154.541V392.949H125.694V378.525H197.812V392.949H168.965V407.372H197.812V392.949H212.235V364.102H226.659V392.949H241.082V349.678H226.659V335.255H212.235V320.831H197.812V306.408H212.235V291.984H197.812V306.408H183.388V320.831ZM125.695 335.255H140.118V349.678H125.695V335.255ZM197.812 335.255V349.678H183.389V335.255H197.812Z" />
<path fill-rule="evenodd" clip-rule="evenodd" d="M443.011 255.637H255.506V443.142H443.011V255.637ZM327.623 320.829H370.893V306.406H385.317V320.829H399.74V335.253H414.164V349.676H428.587V392.947H414.164V364.1H399.74V392.947H385.317V378.523H313.2V392.947H298.776V364.1H284.353V392.947H269.929V349.676H284.353V335.253H298.776V320.829H313.2V306.406H327.623V320.829ZM313.2 306.406H298.776V291.982H313.2V306.406ZM313.2 392.947H342.047V407.37H313.2V392.947ZM385.317 392.947V407.37H356.47V392.947H385.317ZM385.317 306.406V291.982H399.74V306.406H385.317ZM327.624 335.252H313.2V349.676H327.624V335.252ZM385.318 349.676V335.252H370.894V349.676H385.318Z" />
<path fill-rule="evenodd" clip-rule="evenodd" d="M397 71H115C90.6995 71 71 90.6995 71 115V397C71 421.301 90.6995 441 115 441H397C421.301 441 441 421.301 441 397V115C441 90.6995 421.301 71 397 71ZM115 39C73.0264 39 39 73.0264 39 115V397C39 438.974 73.0264 473 115 473H397C438.974 473 473 438.974 473 397V115C473 73.0264 438.974 39 397 39H115Z" />
</svg>
